<svg id="visual" viewBox="0 0 540 960" width="540" height="960" xmlns="http://www.w3.org/2000/svg" xmlns:xlink="http://www.w3.org/1999/xlink" version="1.1"><rect x="0" y="0" width="540" height="960" fill="#d5695f"></rect><path d="M0 483L12.8 494.8C25.7 506.7 51.3 530.3 77 568.3C102.7 606.3 128.3 658.7 154 683.8C179.7 709 205.3 707 231.2 686.2C257 665.3 283 625.7 308.8 611.7C334.7 597.7 360.3 609.3 386 628.5C411.7 647.7 437.3 674.3 463 659.3C488.7 644.3 514.3 587.7 527.2 559.3L540 531L540 0L527.2 0C514.3 0 488.7 0 463 0C437.3 0 411.7 0 386 0C360.3 0 334.7 0 308.8 0C283 0 257 0 231.2 0C205.3 0 179.7 0 154 0C128.3 0 102.7 0 77 0C51.3 0 25.7 0 12.8 0L0 0Z" fill="#01060c"></path><path d="M0 485L12.8 483C25.7 481 51.3 477 77 467C102.7 457 128.3 441 154 422.8C179.7 404.7 205.3 384.3 231.2 379.7C257 375 283 386 308.8 420.8C334.7 455.7 360.3 514.3 386 524.8C411.7 535.3 437.3 497.7 463 479.8C488.7 462 514.3 464 527.2 465L540 466L540 0L527.2 0C514.3 0 488.7 0 463 0C437.3 0 411.7 0 386 0C360.3 0 334.7 0 308.8 0C283 0 257 0 231.2 0C205.3 0 179.7 0 154 0C128.3 0 102.7 0 77 0C51.3 0 25.7 0 12.8 0L0 0Z" fill="#061422"></path><path d="M0 418L12.8 419.3C25.7 420.7 51.3 423.3 77 418.2C102.7 413 128.3 400 154 393C179.7 386 205.3 385 231.2 372.2C257 359.3 283 334.7 308.8 339.8C334.7 345 360.3 380 386 399.5C411.7 419 437.3 423 463 415.3C488.7 407.7 514.3 388.3 527.2 378.7L540 369L540 0L527.2 0C514.3 0 488.7 0 463 0C437.3 0 411.7 0 386 0C360.3 0 334.7 0 308.8 0C283 0 257 0 231.2 0C205.3 0 179.7 0 154 0C128.3 0 102.7 0 77 0C51.3 0 25.7 0 12.8 0L0 0Z" fill="#021d36"></path><path d="M0 182L12.8 179.3C25.7 176.7 51.3 171.3 77 180.7C102.7 190 128.3 214 154 219.5C179.7 225 205.3 212 231.2 199.3C257 186.7 283 174.3 308.8 181C334.7 187.7 360.3 213.3 386 233.3C411.7 253.3 437.3 267.7 463 269.3C488.7 271 514.3 260 527.2 254.5L540 249L540 0L527.2 0C514.3 0 488.7 0 463 0C437.3 0 411.7 0 386 0C360.3 0 334.7 0 308.8 0C283 0 257 0 231.2 0C205.3 0 179.7 0 154 0C128.3 0 102.7 0 77 0C51.3 0 25.7 0 12.8 0L0 0Z" fill="#00254b"></path><path d="M0 175L12.8 167.3C25.7 159.7 51.3 144.3 77 140.8C102.7 137.3 128.3 145.7 154 148.5C179.7 151.3 205.3 148.7 231.2 149C257 149.3 283 152.7 308.8 163.5C334.7 174.3 360.3 192.7 386 182.3C411.7 172 437.3 133 463 129.8C488.7 126.7 514.3 159.3 527.2 175.7L540 192L540 0L527.2 0C514.3 0 488.7 0 463 0C437.3 0 411.7 0 386 0C360.3 0 334.7 0 308.8 0C283 0 257 0 231.2 0C205.3 0 179.7 0 154 0C128.3 0 102.7 0 77 0C51.3 0 25.7 0 12.8 0L0 0Z" fill="#092c60"></path></svg>