<svg id="visual" viewBox="0 0 900 450" width="900" height="450" xmlns="http://www.w3.org/2000/svg" xmlns:xlink="http://www.w3.org/1999/xlink" version="1.1"><rect x="0" y="0" width="900" height="450" fill="#292323"></rect><path d="M0 195L25 229.3C50 263.7 100 332.3 150 333.3C200 334.3 250 267.7 300 266.3C350 265 400 329 450 319C500 309 550 225 600 179.3C650 133.7 700 126.3 750 161.2C800 196 850 273 875 311.5L900 350L900 0L875 0C850 0 800 0 750 0C700 0 650 0 600 0C550 0 500 0 450 0C400 0 350 0 300 0C250 0 200 0 150 0C100 0 50 0 25 0L0 0Z" fill="#454045" stroke-linecap="round" stroke-linejoin="miter"></path></svg>