<svg id="visual" viewBox="0 0 540 960" width="540" height="960" xmlns="http://www.w3.org/2000/svg" xmlns:xlink="http://www.w3.org/1999/xlink" version="1.1"><rect x="0" y="0" width="540" height="960" fill="#001220"></rect><path d="M0 565L12.8 502.3C25.7 439.7 51.3 314.3 77 289.7C102.7 265 128.3 341 154 351.7C179.7 362.3 205.3 307.7 231.2 322.7C257 337.7 283 422.3 308.8 396C334.7 369.7 360.3 232.3 386 219.7C411.7 207 437.3 319 463 347.7C488.7 376.3 514.3 321.7 527.2 294.3L540 267L540 961L527.2 961C514.3 961 488.7 961 463 961C437.3 961 411.7 961 386 961C360.3 961 334.7 961 308.8 961C283 961 257 961 231.2 961C205.3 961 179.7 961 154 961C128.3 961 102.7 961 77 961C51.3 961 25.7 961 12.8 961L0 961Z" fill="#082249"></path><path d="M0 383L12.8 425C25.7 467 51.3 551 77 593.2C102.7 635.3 128.3 635.7 154 617C179.7 598.3 205.3 560.7 231.2 564.5C257 568.3 283 613.7 308.8 578C334.7 542.3 360.3 425.7 386 419.2C411.7 412.7 437.3 516.3 463 558C488.7 599.7 514.3 579.3 527.2 569.2L540 559L540 961L527.2 961C514.3 961 488.7 961 463 961C437.3 961 411.7 961 386 961C360.3 961 334.7 961 308.8 961C283 961 257 961 231.2 961C205.3 961 179.7 961 154 961C128.3 961 102.7 961 77 961C51.3 961 25.7 961 12.8 961L0 961Z" fill="#031c38"></path><path d="M0 520L12.8 550.5C25.7 581 51.3 642 77 657.2C102.7 672.3 128.3 641.7 154 602C179.7 562.3 205.3 513.7 231.2 492.2C257 470.7 283 476.3 308.8 482.7C334.7 489 360.3 496 386 510.2C411.7 524.3 437.3 545.7 463 565.5C488.7 585.3 514.3 603.7 527.2 612.8L540 622L540 961L527.2 961C514.3 961 488.7 961 463 961C437.3 961 411.7 961 386 961C360.3 961 334.7 961 308.8 961C283 961 257 961 231.2 961C205.3 961 179.7 961 154 961C128.3 961 102.7 961 77 961C51.3 961 25.7 961 12.8 961L0 961Z" fill="#041628"></path><path d="M0 632L12.8 633.3C25.7 634.7 51.3 637.3 77 624.8C102.7 612.3 128.3 584.7 154 593.3C179.7 602 205.3 647 231.2 696.8C257 746.7 283 801.3 308.8 789.8C334.7 778.3 360.3 700.7 386 661C411.7 621.3 437.3 619.7 463 604.8C488.7 590 514.3 562 527.2 548L540 534L540 961L527.2 961C514.3 961 488.7 961 463 961C437.3 961 411.7 961 386 961C360.3 961 334.7 961 308.8 961C283 961 257 961 231.2 961C205.3 961 179.7 961 154 961C128.3 961 102.7 961 77 961C51.3 961 25.7 961 12.8 961L0 961Z" fill="#020e18"></path><path d="M0 662L12.8 673.2C25.7 684.3 51.3 706.7 77 739.7C102.7 772.7 128.3 816.3 154 816.3C179.7 816.3 205.3 772.7 231.2 738.8C257 705 283 681 308.8 669.7C334.7 658.3 360.3 659.7 386 706.3C411.7 753 437.3 845 463 846.3C488.7 847.7 514.3 758.3 527.2 713.7L540 669L540 961L527.2 961C514.3 961 488.7 961 463 961C437.3 961 411.7 961 386 961C360.3 961 334.7 961 308.8 961C283 961 257 961 231.2 961C205.3 961 179.7 961 154 961C128.3 961 102.7 961 77 961C51.3 961 25.7 961 12.8 961L0 961Z" fill="#000102"></path></svg>