<svg id="visual" viewBox="0 0 960 540" width="960" height="540" xmlns="http://www.w3.org/2000/svg" xmlns:xlink="http://www.w3.org/1999/xlink" version="1.1"><rect x="0" y="0" width="960" height="540" fill="#0a3145"></rect><path d="M0 166L11.5 183C23 200 46 234 68.8 252.3C91.7 270.7 114.3 273.3 137.2 288.5C160 303.7 183 331.3 205.8 330.2C228.7 329 251.3 299 274.2 274.3C297 249.7 320 230.3 342.8 242.5C365.7 254.7 388.3 298.3 411.2 326.2C434 354 457 366 480 332.3C503 298.7 526 219.3 548.8 218.7C571.7 218 594.3 296 617.2 310.7C640 325.3 663 276.7 685.8 246.8C708.7 217 731.3 206 754.2 214.8C777 223.7 800 252.3 822.8 270.3C845.7 288.3 868.3 295.7 891.2 273.5C914 251.3 937 199.7 948.5 173.8L960 148L960 541L948.5 541C937 541 914 541 891.2 541C868.3 541 845.7 541 822.8 541C800 541 777 541 754.2 541C731.3 541 708.7 541 685.8 541C663 541 640 541 617.2 541C594.3 541 571.7 541 548.8 541C526 541 503 541 480 541C457 541 434 541 411.2 541C388.3 541 365.7 541 342.8 541C320 541 297 541 274.2 541C251.3 541 228.7 541 205.8 541C183 541 160 541 137.2 541C114.3 541 91.7 541 68.8 541C46 541 23 541 11.5 541L0 541Z" fill="#01121a"></path><path d="M0 349L11.5 335.8C23 322.7 46 296.3 68.8 295.3C91.7 294.3 114.3 318.7 137.2 343C160 367.3 183 391.7 205.8 371.8C228.7 352 251.3 288 274.2 258.8C297 229.7 320 235.3 342.8 250.3C365.7 265.3 388.3 289.7 411.2 309.3C434 329 457 344 480 357.5C503 371 526 383 548.8 374C571.7 365 594.3 335 617.2 335C640 335 663 365 685.8 382.7C708.7 400.3 731.3 405.7 754.2 375.8C777 346 800 281 822.8 263.7C845.7 246.3 868.3 276.7 891.2 296.2C914 315.7 937 324.3 948.5 328.7L960 333L960 541L948.5 541C937 541 914 541 891.2 541C868.3 541 845.7 541 822.8 541C800 541 777 541 754.2 541C731.3 541 708.7 541 685.8 541C663 541 640 541 617.2 541C594.3 541 571.7 541 548.8 541C526 541 503 541 480 541C457 541 434 541 411.2 541C388.3 541 365.7 541 342.8 541C320 541 297 541 274.2 541C251.3 541 228.7 541 205.8 541C183 541 160 541 137.2 541C114.3 541 91.7 541 68.8 541C46 541 23 541 11.5 541L0 541Z" fill="#072331"></path><path d="M0 416L11.5 403.7C23 391.3 46 366.7 68.8 366C91.7 365.3 114.3 388.7 137.2 406.8C160 425 183 438 205.8 431.8C228.7 425.7 251.3 400.3 274.2 397C297 393.7 320 412.3 342.8 420C365.7 427.7 388.3 424.3 411.2 402.2C434 380 457 339 480 342.2C503 345.3 526 392.7 548.8 419C571.7 445.3 594.3 450.7 617.2 432.5C640 414.3 663 372.7 685.8 366.8C708.7 361 731.3 391 754.2 385.8C777 380.7 800 340.3 822.8 323.2C845.7 306 868.3 312 891.2 336.7C914 361.3 937 404.7 948.5 426.3L960 448L960 541L948.5 541C937 541 914 541 891.2 541C868.3 541 845.7 541 822.8 541C800 541 777 541 754.2 541C731.3 541 708.7 541 685.8 541C663 541 640 541 617.2 541C594.3 541 571.7 541 548.8 541C526 541 503 541 480 541C457 541 434 541 411.2 541C388.3 541 365.7 541 342.8 541C320 541 297 541 274.2 541C251.3 541 228.7 541 205.8 541C183 541 160 541 137.2 541C114.3 541 91.7 541 68.8 541C46 541 23 541 11.5 541L0 541Z" fill="#06354b"></path><path d="M0 464L11.5 466.2C23 468.3 46 472.7 68.8 465.2C91.7 457.7 114.3 438.3 137.2 424.8C160 411.3 183 403.7 205.8 410.5C228.7 417.3 251.3 438.7 274.2 451.8C297 465 320 470 342.8 474C365.7 478 388.3 481 411.2 466.7C434 452.3 457 420.7 480 403.2C503 385.7 526 382.3 548.8 384.5C571.7 386.7 594.3 394.3 617.2 402.3C640 410.3 663 418.7 685.8 427.5C708.7 436.3 731.3 445.7 754.2 439.5C777 433.3 800 411.7 822.8 411.8C845.7 412 868.3 434 891.2 441.8C914 449.7 937 443.3 948.5 440.2L960 437L960 541L948.5 541C937 541 914 541 891.2 541C868.3 541 845.7 541 822.8 541C800 541 777 541 754.2 541C731.3 541 708.7 541 685.8 541C663 541 640 541 617.2 541C594.3 541 571.7 541 548.8 541C526 541 503 541 480 541C457 541 434 541 411.2 541C388.3 541 365.7 541 342.8 541C320 541 297 541 274.2 541C251.3 541 228.7 541 205.8 541C183 541 160 541 137.2 541C114.3 541 91.7 541 68.8 541C46 541 23 541 11.5 541L0 541Z" fill="#064767"></path></svg>