<svg id="visual" viewBox="0 0 540 960" width="540" height="960" xmlns="http://www.w3.org/2000/svg" xmlns:xlink="http://www.w3.org/1999/xlink" version="1.1"><rect x="0" y="0" width="540" height="960" fill="#001220"></rect><path d="M0 324L12.8 323.3C25.7 322.7 51.3 321.3 77 328.7C102.7 336 128.3 352 154 343.2C179.7 334.3 205.3 300.7 231.2 298.2C257 295.7 283 324.3 308.8 340.3C334.7 356.3 360.3 359.7 386 349.2C411.7 338.7 437.3 314.3 463 303.7C488.7 293 514.3 296 527.2 297.5L540 299L540 961L527.2 961C514.3 961 488.7 961 463 961C437.3 961 411.7 961 386 961C360.3 961 334.7 961 308.8 961C283 961 257 961 231.2 961C205.3 961 179.7 961 154 961C128.3 961 102.7 961 77 961C51.3 961 25.7 961 12.8 961L0 961Z" fill="#fa7268"></path><path d="M0 439L12.8 429.8C25.7 420.7 51.3 402.3 77 408.7C102.7 415 128.3 446 154 454.3C179.7 462.7 205.3 448.3 231.2 442.8C257 437.3 283 440.7 308.8 434.3C334.7 428 360.3 412 386 403.2C411.7 394.3 437.3 392.7 463 395.5C488.7 398.3 514.3 405.7 527.2 409.3L540 413L540 961L527.2 961C514.3 961 488.7 961 463 961C437.3 961 411.7 961 386 961C360.3 961 334.7 961 308.8 961C283 961 257 961 231.2 961C205.3 961 179.7 961 154 961C128.3 961 102.7 961 77 961C51.3 961 25.7 961 12.8 961L0 961Z" fill="#ef5f67"></path><path d="M0 604L12.8 592.3C25.7 580.7 51.3 557.3 77 549.8C102.7 542.3 128.3 550.7 154 554C179.7 557.3 205.3 555.7 231.2 553.7C257 551.7 283 549.3 308.8 549.3C334.7 549.3 360.3 551.7 386 547.8C411.7 544 437.3 534 463 528C488.7 522 514.3 520 527.2 519L540 518L540 961L527.2 961C514.3 961 488.7 961 463 961C437.3 961 411.7 961 386 961C360.3 961 334.7 961 308.8 961C283 961 257 961 231.2 961C205.3 961 179.7 961 154 961C128.3 961 102.7 961 77 961C51.3 961 25.7 961 12.8 961L0 961Z" fill="#e34c67"></path><path d="M0 715L12.8 714.2C25.7 713.3 51.3 711.7 77 705C102.7 698.3 128.3 686.7 154 685.5C179.7 684.3 205.3 693.7 231.2 688.7C257 683.7 283 664.3 308.8 663.2C334.7 662 360.3 679 386 690.2C411.7 701.3 437.3 706.7 463 702.5C488.7 698.3 514.3 684.7 527.2 677.8L540 671L540 961L527.2 961C514.3 961 488.7 961 463 961C437.3 961 411.7 961 386 961C360.3 961 334.7 961 308.8 961C283 961 257 961 231.2 961C205.3 961 179.7 961 154 961C128.3 961 102.7 961 77 961C51.3 961 25.7 961 12.8 961L0 961Z" fill="#d53867"></path><path d="M0 777L12.8 780.2C25.7 783.3 51.3 789.7 77 790.2C102.7 790.7 128.3 785.3 154 791C179.7 796.7 205.3 813.3 231.2 818.7C257 824 283 818 308.8 807.5C334.7 797 360.3 782 386 775.8C411.7 769.7 437.3 772.3 463 773.3C488.7 774.3 514.3 773.7 527.2 773.3L540 773L540 961L527.2 961C514.3 961 488.7 961 463 961C437.3 961 411.7 961 386 961C360.3 961 334.7 961 308.8 961C283 961 257 961 231.2 961C205.3 961 179.7 961 154 961C128.3 961 102.7 961 77 961C51.3 961 25.7 961 12.8 961L0 961Z" fill="#c62368"></path></svg>