<svg id="visual" viewBox="0 0 960 540" width="960" height="540" xmlns="http://www.w3.org/2000/svg" xmlns:xlink="http://www.w3.org/1999/xlink" version="1.1"><rect x="0" y="0" width="960" height="540" fill="#04283a"></rect><path d="M0 278L11.5 290C23 302 46 326 68.8 338.8C91.7 351.7 114.3 353.3 137.2 363.8C160 374.3 183 393.7 205.8 392.8C228.7 392 251.3 371 274.2 353.7C297 336.3 320 322.7 342.8 331.2C365.7 339.7 388.3 370.3 411.2 389.8C434 409.3 457 417.7 480 394.2C503 370.7 526 315.3 548.8 314.8C571.7 314.3 594.3 368.7 617.2 378.8C640 389 663 355 685.8 334.2C708.7 313.3 731.3 305.7 754.2 311.8C777 318 800 338 822.8 350.7C845.7 363.3 868.3 368.7 891.2 353.2C914 337.7 937 301.3 948.5 283.2L960 265L960 541L948.5 541C937 541 914 541 891.2 541C868.3 541 845.7 541 822.8 541C800 541 777 541 754.2 541C731.3 541 708.7 541 685.8 541C663 541 640 541 617.2 541C594.3 541 571.7 541 548.8 541C526 541 503 541 480 541C457 541 434 541 411.2 541C388.3 541 365.7 541 342.8 541C320 541 297 541 274.2 541C251.3 541 228.7 541 205.8 541C183 541 160 541 137.2 541C114.3 541 91.7 541 68.8 541C46 541 23 541 11.5 541L0 541Z" fill="#f13b2e"></path><path d="M0 406L11.5 396.8C23 387.7 46 369.3 68.8 368.7C91.7 368 114.3 385 137.2 402C160 419 183 436 205.8 422C228.7 408 251.3 363 274.2 342.5C297 322 320 326 342.8 336.5C365.7 347 388.3 364 411.2 377.8C434 391.7 457 402.3 480 411.8C503 421.3 526 429.7 548.8 423.3C571.7 417 594.3 396 617.2 396.2C640 396.3 663 417.7 685.8 430C708.7 442.3 731.3 445.7 754.2 424.7C777 403.7 800 358.3 822.8 346.2C845.7 334 868.3 355 891.2 368.7C914 382.3 937 388.7 948.5 391.8L960 395L960 541L948.5 541C937 541 914 541 891.2 541C868.3 541 845.7 541 822.8 541C800 541 777 541 754.2 541C731.3 541 708.7 541 685.8 541C663 541 640 541 617.2 541C594.3 541 571.7 541 548.8 541C526 541 503 541 480 541C457 541 434 541 411.2 541C388.3 541 365.7 541 342.8 541C320 541 297 541 274.2 541C251.3 541 228.7 541 205.8 541C183 541 160 541 137.2 541C114.3 541 91.7 541 68.8 541C46 541 23 541 11.5 541L0 541Z" fill="#f54f42"></path><path d="M0 453L11.5 444.3C23 435.7 46 418.3 68.8 417.8C91.7 417.3 114.3 433.7 137.2 446.3C160 459 183 468 205.8 463.7C228.7 459.3 251.3 441.7 274.2 439.5C297 437.3 320 450.7 342.8 456C365.7 461.3 388.3 458.7 411.2 443C434 427.3 457 398.7 480 401C503 403.3 526 436.7 548.8 455.2C571.7 473.7 594.3 477.3 617.2 464.5C640 451.7 663 422.3 685.8 418.2C708.7 414 731.3 435 754.2 431.5C777 428 800 400 822.8 388C845.7 376 868.3 380 891.2 397.2C914 414.3 937 444.7 948.5 459.8L960 475L960 541L948.5 541C937 541 914 541 891.2 541C868.3 541 845.7 541 822.8 541C800 541 777 541 754.2 541C731.3 541 708.7 541 685.8 541C663 541 640 541 617.2 541C594.3 541 571.7 541 548.8 541C526 541 503 541 480 541C457 541 434 541 411.2 541C388.3 541 365.7 541 342.8 541C320 541 297 541 274.2 541C251.3 541 228.7 541 205.8 541C183 541 160 541 137.2 541C114.3 541 91.7 541 68.8 541C46 541 23 541 11.5 541L0 541Z" fill="#f86155"></path><path d="M0 486L11.5 487.5C23 489 46 492 68.8 486.8C91.7 481.7 114.3 468.3 137.2 459C160 449.7 183 444.3 205.8 449.2C228.7 454 251.3 469 274.2 478.2C297 487.3 320 490.7 342.8 493.3C365.7 496 388.3 498 411.2 488C434 478 457 456 480 443.8C503 431.7 526 429.3 548.8 430.8C571.7 432.3 594.3 437.7 617.2 443.3C640 449 663 455 685.8 461.2C708.7 467.3 731.3 473.7 754.2 469.3C777 465 800 450 822.8 450.2C845.7 450.3 868.3 465.7 891.2 471.2C914 476.7 937 472.3 948.5 470.2L960 468L960 541L948.5 541C937 541 914 541 891.2 541C868.3 541 845.7 541 822.8 541C800 541 777 541 754.2 541C731.3 541 708.7 541 685.8 541C663 541 640 541 617.2 541C594.3 541 571.7 541 548.8 541C526 541 503 541 480 541C457 541 434 541 411.2 541C388.3 541 365.7 541 342.8 541C320 541 297 541 274.2 541C251.3 541 228.7 541 205.8 541C183 541 160 541 137.2 541C114.3 541 91.7 541 68.8 541C46 541 23 541 11.5 541L0 541Z" fill="#fa7268"></path></svg>