<svg id="visual" viewBox="0 0 450 900" width="450" height="900" xmlns="http://www.w3.org/2000/svg" xmlns:xlink="http://www.w3.org/1999/xlink" version="1.1"><rect x="0" y="0" width="450" height="900" fill="#292323"></rect><path d="M0 220L7.5 248C15 276 30 332 45 381.2C60 430.3 75 472.7 90 437.8C105 403 120 291 135 262.8C150 234.7 165 290.3 180 343.3C195 396.3 210 446.7 225 476.3C240 506 255 515 270 437.3C285 359.7 300 195.3 315 190.5C330 185.7 345 340.3 360 396.3C375 452.3 390 409.7 405 373.3C420 337 435 307 442.5 292L450 277L450 0L442.5 0C435 0 420 0 405 0C390 0 375 0 360 0C345 0 330 0 315 0C300 0 285 0 270 0C255 0 240 0 225 0C210 0 195 0 180 0C165 0 150 0 135 0C120 0 105 0 90 0C75 0 60 0 45 0C30 0 15 0 7.5 0L0 0Z" fill="#cd45d9" stroke-linecap="round" stroke-linejoin="miter"></path></svg>