<svg id="visual" viewBox="0 0 540 960" width="540" height="960" xmlns="http://www.w3.org/2000/svg" xmlns:xlink="http://www.w3.org/1999/xlink" version="1.1"><path d="M382 960L393.8 945.5C405.7 931 429.3 902 424.8 872.8C420.3 843.7 387.7 814.3 388.5 785.2C389.3 756 423.7 727 442.7 698C461.7 669 465.3 640 442.8 611C420.3 582 371.7 553 351 523.8C330.3 494.7 337.7 465.3 344.8 436.2C352 407 359 378 378.7 349C398.3 320 430.7 291 424.3 262C418 233 373 204 344.3 174.8C315.7 145.7 303.3 116.3 305.2 87.2C307 58 323 29 331 14.5L339 0L540 0L540 14.5C540 29 540 58 540 87.2C540 116.3 540 145.7 540 174.8C540 204 540 233 540 262C540 291 540 320 540 349C540 378 540 407 540 436.2C540 465.3 540 494.7 540 523.8C540 553 540 582 540 611C540 640 540 669 540 698C540 727 540 756 540 785.2C540 814.3 540 843.7 540 872.8C540 902 540 931 540 945.5L540 960Z" fill="#4e4545"></path><path d="M280 960L292.5 945.5C305 931 330 902 320 872.8C310 843.7 265 814.3 261.5 785.2C258 756 296 727 315.8 698C335.7 669 337.3 640 325.7 611C314 582 289 553 268.3 523.8C247.7 494.7 231.3 465.3 239.3 436.2C247.3 407 279.7 378 304 349C328.3 320 344.7 291 339.3 262C334 233 307 204 284.5 174.8C262 145.7 244 116.3 243 87.2C242 58 258 29 266 14.5L274 0L340 0L332 14.5C324 29 308 58 306.2 87.2C304.3 116.3 316.7 145.7 345.3 174.8C374 204 419 233 425.3 262C431.7 291 399.3 320 379.7 349C360 378 353 407 345.8 436.2C338.7 465.3 331.3 494.7 352 523.8C372.7 553 421.3 582 443.8 611C466.3 640 462.7 669 443.7 698C424.7 727 390.3 756 389.5 785.2C388.7 814.3 421.3 843.7 425.8 872.8C430.3 902 406.7 931 394.8 945.5L383 960Z" fill="#3b3434"></path><path d="M183 960L196.5 945.5C210 931 237 902 227 872.8C217 843.7 170 814.3 167.2 785.2C164.3 756 205.7 727 236.3 698C267 669 287 640 275.3 611C263.7 582 220.3 553 192.3 523.8C164.3 494.7 151.7 465.3 158.8 436.2C166 407 193 378 217.3 349C241.7 320 263.3 291 256.2 262C249 233 213 204 195 174.8C177 145.7 177 116.3 176.2 87.2C175.3 58 173.7 29 172.8 14.5L172 0L275 0L267 14.5C259 29 243 58 244 87.2C245 116.3 263 145.7 285.5 174.8C308 204 335 233 340.3 262C345.7 291 329.3 320 305 349C280.7 378 248.3 407 240.3 436.2C232.3 465.3 248.7 494.7 269.3 523.8C290 553 315 582 326.7 611C338.3 640 336.7 669 316.8 698C297 727 259 756 262.5 785.2C266 814.3 311 843.7 321 872.8C331 902 306 931 293.5 945.5L281 960Z" fill="#292323"></path><path d="M107 960L118.7 945.5C130.3 931 153.7 902 151 872.8C148.3 843.7 119.7 814.3 118.8 785.2C118 756 145 727 165.7 698C186.3 669 200.7 640 190.7 611C180.7 582 146.3 553 126.5 523.8C106.7 494.7 101.3 465.3 108.7 436.2C116 407 136 378 160.3 349C184.7 320 213.3 291 209.7 262C206 233 170 204 145.7 174.8C121.3 145.7 108.7 116.3 103.3 87.2C98 58 100 29 101 14.5L102 0L173 0L173.8 14.5C174.7 29 176.3 58 177.2 87.2C178 116.3 178 145.7 196 174.8C214 204 250 233 257.2 262C264.3 291 242.7 320 218.3 349C194 378 167 407 159.8 436.2C152.7 465.3 165.3 494.7 193.3 523.8C221.3 553 264.7 582 276.3 611C288 640 268 669 237.3 698C206.7 727 165.3 756 168.2 785.2C171 814.3 218 843.7 228 872.8C238 902 211 931 197.5 945.5L184 960Z" fill="#241f1f"></path><path d="M0 960L0 945.5C0 931 0 902 0 872.8C0 843.7 0 814.3 0 785.2C0 756 0 727 0 698C0 669 0 640 0 611C0 582 0 553 0 523.8C0 494.7 0 465.3 0 436.2C0 407 0 378 0 349C0 320 0 291 0 262C0 233 0 204 0 174.8C0 145.7 0 116.3 0 87.2C0 58 0 29 0 14.5L0 0L103 0L102 14.5C101 29 99 58 104.3 87.2C109.7 116.3 122.3 145.7 146.7 174.8C171 204 207 233 210.7 262C214.3 291 185.7 320 161.3 349C137 378 117 407 109.7 436.2C102.3 465.3 107.7 494.7 127.5 523.8C147.3 553 181.7 582 191.7 611C201.7 640 187.3 669 166.7 698C146 727 119 756 119.8 785.2C120.7 814.3 149.3 843.7 152 872.8C154.7 902 131.3 931 119.7 945.5L108 960Z" fill="#1f1b1b"></path></svg>