<svg id="visual" viewBox="0 0 900 450" width="900" height="450" xmlns="http://www.w3.org/2000/svg" xmlns:xlink="http://www.w3.org/1999/xlink" version="1.1"><rect x="0" y="0" width="900" height="450" fill="#b835c4"></rect><path d="M0 244L25 217C50 190 100 136 150 109.8C200 83.7 250 85.3 300 140.7C350 196 400 305 450 347.5C500 390 550 366 600 348.3C650 330.7 700 319.3 750 299.7C800 280 850 252 875 238L900 224L900 0L875 0C850 0 800 0 750 0C700 0 650 0 600 0C550 0 500 0 450 0C400 0 350 0 300 0C250 0 200 0 150 0C100 0 50 0 25 0L0 0Z" fill="#5a1760" stroke-linecap="round" stroke-linejoin="miter"></path></svg>